<svg width="22" height="22" viewBox="0 0 22 22" fill="none" xmlns="http://www.w3.org/2000/svg">
<path fill-rule="evenodd" clip-rule="evenodd" d="M0.512998 0.960012C0.714844 0.782074 0.964496 0.66732 1.23097 0.629988C1.49745 0.592656 1.76903 0.634391 2.012 0.750012L21.347 9.96501C21.5427 10.0581 21.708 10.2047 21.8238 10.3879C21.9395 10.5711 22.001 10.7833 22.001 11C22.001 11.2167 21.9395 11.429 21.8238 11.6122C21.708 11.7954 21.5427 11.942 21.347 12.035L2.012 21.25C1.78569 21.3578 1.53423 21.4015 1.28482 21.3766C1.03542 21.3517 0.797582 21.2591 0.597054 21.1087C0.396527 20.9583 0.240951 20.756 0.147168 20.5235C0.0533861 20.2911 0.0249705 20.0374 0.0649977 19.79L1.49 11L0.0649977 2.21001C0.0279621 1.98078 0.0496278 1.74589 0.127972 1.5273C0.206315 1.30871 0.338781 1.11354 0.512998 0.960012ZM2.888 11.75L1.584 19.792L20.031 11L1.584 2.20801L2.888 10.25H10.25C10.4489 10.25 10.6397 10.329 10.7803 10.4697C10.921 10.6103 11 10.8011 11 11C11 11.1989 10.921 11.3897 10.7803 11.5303C10.6397 11.671 10.4489 11.75 10.25 11.75H2.888Z" fill="#F4F4F4"/>
</svg>
