<svg width="16" height="18" viewBox="0 0 16 18" fill="none" xmlns="http://www.w3.org/2000/svg">
<path d="M8.00003 0.356934C9.73678 0.356969 11.4052 1.03348 12.6516 2.24301C13.8979 3.45253 14.6241 5.09996 14.6762 6.83593L14.6794 7.03629V10.66L15.7904 13.5231C15.8202 13.6001 15.8407 13.6811 15.8509 13.7628L15.8587 13.8869C15.8587 14.1359 15.7662 14.376 15.5993 14.5608C15.4324 14.7456 15.2029 14.8619 14.9552 14.8871L14.853 14.8926L10.7516 14.8934C10.749 15.6084 10.4683 16.2943 9.96877 16.8059C9.46926 17.3175 8.79023 17.6145 8.07551 17.6341C7.36079 17.6537 6.6665 17.3944 6.13969 16.911C5.61288 16.4275 5.29493 15.7581 5.25317 15.0443L5.24846 14.8919L1.14467 14.8926C0.989742 14.8928 0.83688 14.8571 0.698011 14.7884C0.559142 14.7197 0.438019 14.6199 0.344091 14.4967C0.250163 14.3735 0.185971 14.2302 0.156521 14.0781C0.127071 13.926 0.13316 13.7692 0.174312 13.6198L0.207312 13.5224L1.31988 10.6592V7.03708C1.31978 6.1598 1.4925 5.29109 1.82817 4.48057C2.16384 3.67006 2.65589 2.9336 3.27622 2.31327C3.89655 1.69294 4.63301 1.20089 5.44352 0.865219C6.25404 0.529547 7.12275 0.35683 8.00003 0.356934ZM9.56831 15.0105L9.57146 14.8926L6.42703 14.8942C6.42163 15.3045 6.57687 15.7007 6.85959 15.9981C7.14231 16.2955 7.5301 16.4706 7.94016 16.486C8.35022 16.5014 8.75004 16.3558 9.05425 16.0804C9.35846 15.8051 9.54295 15.4216 9.56831 15.0121V15.0105ZM8.00003 1.53551C6.57389 1.53547 5.20349 2.08932 4.17784 3.08023C3.15219 4.07113 2.55148 5.42165 2.50238 6.84693L2.49924 7.03629V10.77C2.49922 10.8188 2.49315 10.8673 2.48117 10.9146L2.45917 10.9837L1.39688 13.7141H14.6L13.5409 10.9845C13.5233 10.939 13.5114 10.8915 13.5055 10.8431L13.5 10.7708V7.03708C13.5001 6.3147 13.3579 5.59938 13.0816 4.93196C12.8053 4.26453 12.4002 3.65807 11.8894 3.1472C11.3787 2.63634 10.7724 2.23106 10.105 1.95453C9.43768 1.67799 8.7224 1.53561 8.00003 1.53551Z" fill="black"/>
</svg>
