<svg width="11" height="13" viewBox="0 0 11 13" fill="none" xmlns="http://www.w3.org/2000/svg">
<path d="M1.5 1C1.5 0.723858 1.27614 0.5 1 0.5C0.723858 0.5 0.5 0.723858 0.5 1L1.5 1ZM1 8.5H0.5V9H1V8.5ZM10.3536 8.85355C10.5488 8.65829 10.5488 8.34171 10.3536 8.14645L7.17157 4.96447C6.97631 4.7692 6.65973 4.7692 6.46447 4.96447C6.2692 5.15973 6.2692 5.47631 6.46447 5.67157L9.29289 8.5L6.46447 11.3284C6.2692 11.5237 6.2692 11.8403 6.46447 12.0355C6.65973 12.2308 6.97631 12.2308 7.17157 12.0355L10.3536 8.85355ZM0.5 1V8.5H1.5V1L0.5 1ZM1 9H10V8H1V9Z" fill="#C9C9C9"/>
<path d="M7.35355 5.14645C7.15829 4.95118 6.84171 4.95118 6.64645 5.14645C6.45118 5.34171 6.45118 5.65829 6.64645 5.85355L7.35355 5.14645ZM10 8.5L10.3536 8.85355C10.5488 8.65829 10.5488 8.34171 10.3536 8.14645L10 8.5ZM6.64645 11.1464C6.45118 11.3417 6.45118 11.6583 6.64645 11.8536C6.84171 12.0488 7.15829 12.0488 7.35355 11.8536L6.64645 11.1464ZM6.64645 5.85355L9.64645 8.85355L10.3536 8.14645L7.35355 5.14645L6.64645 5.85355ZM9.64645 8.14645L6.64645 11.1464L7.35355 11.8536L10.3536 8.85355L9.64645 8.14645Z" fill="#C9C9C9"/>
</svg>
