<svg width="16" height="16" viewBox="0 0 16 16" fill="none" xmlns="http://www.w3.org/2000/svg">
<path d="M6.5 3.03748V3.22498H9.5V3.03748C9.5 2.63965 9.34196 2.25812 9.06066 1.97682C8.77936 1.69551 8.39782 1.53748 8 1.53748C7.60218 1.53748 7.22064 1.69551 6.93934 1.97682C6.65804 2.25812 6.5 2.63965 6.5 3.03748ZM5.5625 3.22498V3.03748C5.5625 2.39101 5.81931 1.77102 6.27643 1.3139C6.73355 0.856783 7.35353 0.599976 8 0.599976C8.64647 0.599976 9.26645 0.856783 9.72357 1.3139C10.1807 1.77102 10.4375 2.39101 10.4375 3.03748V3.22498H14.6562C14.7806 3.22498 14.8998 3.27436 14.9877 3.36227C15.0756 3.45018 15.125 3.56941 15.125 3.69373C15.125 3.81805 15.0756 3.93727 14.9877 4.02518C14.8998 4.11309 14.7806 4.16248 14.6562 4.16248H13.5624L12.8124 13.1085C12.7554 13.7878 12.4453 14.421 11.9434 14.8825C11.4416 15.3439 10.7847 15.6 10.103 15.6H5.897C5.21532 15.5999 4.55854 15.3438 4.0568 14.8823C3.55506 14.4209 3.24498 13.7878 3.188 13.1085L2.438 4.16248H1.34375C1.21943 4.16248 1.1002 4.11309 1.01229 4.02518C0.924386 3.93727 0.875 3.81805 0.875 3.69373C0.875 3.56941 0.924386 3.45018 1.01229 3.36227C1.1002 3.27436 1.21943 3.22498 1.34375 3.22498H5.5625ZM7.0625 6.69373C7.0625 6.63217 7.05038 6.57121 7.02682 6.51434C7.00326 6.45747 6.96873 6.4058 6.92521 6.36227C6.88168 6.31874 6.83 6.28421 6.77313 6.26066C6.71626 6.2371 6.65531 6.22498 6.59375 6.22498C6.53219 6.22498 6.47124 6.2371 6.41437 6.26066C6.3575 6.28421 6.30582 6.31874 6.26229 6.36227C6.21877 6.4058 6.18424 6.45747 6.16068 6.51434C6.13712 6.57121 6.125 6.63217 6.125 6.69373V12.1312C6.125 12.1928 6.13712 12.2537 6.16068 12.3106C6.18424 12.3675 6.21877 12.4192 6.26229 12.4627C6.30582 12.5062 6.3575 12.5407 6.41437 12.5643C6.47124 12.5879 6.53219 12.6 6.59375 12.6C6.65531 12.6 6.71626 12.5879 6.77313 12.5643C6.83 12.5407 6.88168 12.5062 6.92521 12.4627C6.96873 12.4192 7.00326 12.3675 7.02682 12.3106C7.05038 12.2537 7.0625 12.1928 7.0625 12.1312V6.69373ZM9.40625 6.22498C9.1475 6.22498 8.9375 6.43498 8.9375 6.69373V12.1312C8.9375 12.2555 8.98689 12.3748 9.07479 12.4627C9.1627 12.5506 9.28193 12.6 9.40625 12.6C9.53057 12.6 9.6498 12.5506 9.73771 12.4627C9.82561 12.3748 9.875 12.2555 9.875 12.1312V6.69373C9.875 6.43498 9.665 6.22498 9.40625 6.22498Z" fill="black"/>
</svg>
