<svg width="12" height="14" viewBox="0 0 12 14" fill="none" xmlns="http://www.w3.org/2000/svg">
<path fill-rule="evenodd" clip-rule="evenodd" d="M0.75 13.5625V1.75C0.75 1.28587 0.934374 0.840752 1.26256 0.512563C1.59075 0.184374 2.03587 0 2.5 0L9.5 0C9.96413 0 10.4092 0.184374 10.7374 0.512563C11.0656 0.840752 11.25 1.28587 11.25 1.75V13.5625C11.2501 13.6385 11.2303 13.7132 11.1928 13.7792C11.1552 13.8452 11.1011 13.9003 11.0357 13.9391C10.9704 13.9779 10.8961 13.9989 10.8201 14.0003C10.7441 14.0016 10.6691 13.9831 10.6025 13.9466L6 11.4354L1.3975 13.9466C1.33085 13.9831 1.25585 14.0016 1.17989 14.0003C1.10393 13.9989 1.02962 13.9779 0.96428 13.9391C0.89894 13.9003 0.844819 13.8452 0.807247 13.7792C0.769674 13.7132 0.749945 13.6385 0.75 13.5625ZM6.14 3.5875C6.12721 3.56126 6.1073 3.53915 6.08255 3.52367C6.05779 3.5082 6.02919 3.5 6 3.5C5.97081 3.5 5.94221 3.5082 5.91745 3.52367C5.8927 3.53915 5.87279 3.56126 5.86 3.5875L5.30525 4.71187C5.29414 4.73462 5.27766 4.75431 5.25723 4.76926C5.2368 4.7842 5.21304 4.79393 5.188 4.79762L3.9455 4.97788C3.9169 4.98222 3.89007 4.99444 3.86802 5.01317C3.84597 5.0319 3.82958 5.05641 3.82068 5.08393C3.81177 5.11146 3.81071 5.14092 3.81761 5.16902C3.82452 5.19711 3.83911 5.22273 3.85975 5.243L4.7575 6.11888C4.79425 6.15475 4.81087 6.20638 4.80212 6.25712L4.59125 7.49437C4.58649 7.52294 4.5898 7.55227 4.60079 7.57907C4.61178 7.60586 4.63003 7.62906 4.65348 7.64606C4.67693 7.66306 4.70466 7.67318 4.73354 7.67529C4.76243 7.6774 4.79133 7.67141 4.817 7.658L5.92825 7.0735C5.95053 7.06185 5.9753 7.05576 6.00044 7.05576C6.02558 7.05576 6.05035 7.06185 6.07263 7.0735L7.18387 7.658C7.20952 7.67117 7.23831 7.67697 7.26706 7.67474C7.2958 7.67251 7.32336 7.66236 7.34667 7.64539C7.36998 7.62843 7.38812 7.60534 7.39909 7.57867C7.41005 7.55201 7.41339 7.52283 7.40875 7.49437L7.197 6.25625C7.19253 6.23139 7.19418 6.20581 7.20181 6.18172C7.20943 6.15764 7.22279 6.13577 7.24075 6.118L8.14025 5.24213C8.16089 5.22186 8.17548 5.19624 8.18239 5.16814C8.18929 5.14005 8.18823 5.11058 8.17932 5.08306C8.17042 5.05553 8.15403 5.03103 8.13198 5.01229C8.10993 4.99356 8.0831 4.98134 8.0545 4.977L6.812 4.79675C6.78696 4.79306 6.7632 4.78332 6.74277 4.76838C6.72234 4.75344 6.70585 4.73374 6.69475 4.711L6.14 3.5875Z" fill="black"/>
</svg>
