<svg width="22" height="22" viewBox="0 0 22 22" fill="none" xmlns="http://www.w3.org/2000/svg">
<path d="M22 6.1875V18.5625C22 19.7012 21.0762 20.625 19.9375 20.625H2.0625C0.923828 20.625 0 19.7012 0 18.5625V6.1875C0 5.04883 0.923828 4.125 2.0625 4.125H5.84375L6.37227 2.71133C6.67305 1.90781 7.44219 1.375 8.30156 1.375H13.6941C14.5535 1.375 15.3227 1.90781 15.6234 2.71133L16.1562 4.125H19.9375C21.0762 4.125 22 5.04883 22 6.1875ZM16.1562 12.375C16.1562 9.53047 13.8445 7.21875 11 7.21875C8.15547 7.21875 5.84375 9.53047 5.84375 12.375C5.84375 15.2195 8.15547 17.5312 11 17.5312C13.8445 17.5312 16.1562 15.2195 16.1562 12.375ZM14.7812 12.375C14.7812 14.459 13.084 16.1562 11 16.1562C8.91602 16.1562 7.21875 14.459 7.21875 12.375C7.21875 10.291 8.91602 8.59375 11 8.59375C13.084 8.59375 14.7812 10.291 14.7812 12.375Z" fill="black"/>
</svg>
