<svg width="31" height="29" viewBox="0 0 31 29" fill="none" xmlns="http://www.w3.org/2000/svg">
<path d="M31 7.71875V25.1562C31 26.7607 29.6982 28.0625 28.0938 28.0625H2.90625C1.30176 28.0625 0 26.7607 0 25.1562V7.71875C0 6.11426 1.30176 4.8125 2.90625 4.8125H8.23438L8.9791 2.82051C9.40293 1.68828 10.4867 0.9375 11.6977 0.9375H19.2963C20.5072 0.9375 21.591 1.68828 22.0148 2.82051L22.7656 4.8125H28.0938C29.6982 4.8125 31 6.11426 31 7.71875ZM22.7656 16.4375C22.7656 12.4293 19.5082 9.17188 15.5 9.17188C11.4918 9.17188 8.23438 12.4293 8.23438 16.4375C8.23438 20.4457 11.4918 23.7031 15.5 23.7031C19.5082 23.7031 22.7656 20.4457 22.7656 16.4375ZM20.8281 16.4375C20.8281 19.374 18.4365 21.7656 15.5 21.7656C12.5635 21.7656 10.1719 19.374 10.1719 16.4375C10.1719 13.501 12.5635 11.1094 15.5 11.1094C18.4365 11.1094 20.8281 13.501 20.8281 16.4375Z" fill="black"/>
</svg>
