<svg width="36" height="36" viewBox="0 0 36 36" fill="none" xmlns="http://www.w3.org/2000/svg">
<path d="M18 23.25C19.3924 23.25 20.7277 22.6969 21.7123 21.7123C22.6969 20.7277 23.25 19.3924 23.25 18C23.25 16.6076 22.6969 15.2723 21.7123 14.2877C20.7277 13.3031 19.3924 12.75 18 12.75C16.6076 12.75 15.2723 13.3031 14.2877 14.2877C13.3031 15.2723 12.75 16.6076 12.75 18C12.75 19.3924 13.3031 20.7277 14.2877 21.7123C15.2723 22.6969 16.6076 23.25 18 23.25ZM18.875 4.875C18.875 4.64294 18.7828 4.42038 18.6187 4.25628C18.4546 4.09219 18.2321 4 18 4C17.7679 4 17.5454 4.09219 17.3813 4.25628C17.2172 4.42038 17.125 4.64294 17.125 4.875V7.535C14.6508 7.74192 12.33 8.81874 10.5744 10.5744C8.81874 12.33 7.74192 14.6508 7.535 17.125H4.875C4.64294 17.125 4.42038 17.2172 4.25628 17.3813C4.09219 17.5454 4 17.7679 4 18C4 18.2321 4.09219 18.4546 4.25628 18.6187C4.42038 18.7828 4.64294 18.875 4.875 18.875H7.535C7.74192 21.3492 8.81874 23.67 10.5744 25.4256C12.33 27.1813 14.6508 28.2581 17.125 28.465V31.125C17.125 31.3571 17.2172 31.5796 17.3813 31.7437C17.5454 31.9078 17.7679 32 18 32C18.2321 32 18.4546 31.9078 18.6187 31.7437C18.7828 31.5796 18.875 31.3571 18.875 31.125V28.465C21.3491 28.2577 23.6697 27.1808 25.4253 25.4253C27.1808 23.6697 28.2577 21.3491 28.465 18.875H31.125C31.3571 18.875 31.5796 18.7828 31.7437 18.6187C31.9078 18.4546 32 18.2321 32 18C32 17.7679 31.9078 17.5454 31.7437 17.3813C31.5796 17.2172 31.3571 17.125 31.125 17.125H28.465C28.2581 14.6508 27.1813 12.33 25.4256 10.5744C23.67 8.81874 21.3492 7.74192 18.875 7.535V4.875ZM18 26.75C15.6794 26.75 13.4538 25.8281 11.8128 24.1872C10.1719 22.5462 9.25 20.3206 9.25 18C9.25 15.6794 10.1719 13.4538 11.8128 11.8128C13.4538 10.1719 15.6794 9.25 18 9.25C20.3206 9.25 22.5462 10.1719 24.1872 11.8128C25.8281 13.4538 26.75 15.6794 26.75 18C26.75 20.3206 25.8281 22.5462 24.1872 24.1872C22.5462 25.8281 20.3206 26.75 18 26.75Z" fill="#F6F6F6"/>
</svg>
