<svg width="43" height="39" viewBox="0 0 43 39" fill="none" xmlns="http://www.w3.org/2000/svg">
<path fill-rule="evenodd" clip-rule="evenodd" d="M21.1185 5.87246L38.0119 22.7659V34.611C38.0119 35.7311 37.5669 36.8053 36.7749 37.5973C35.9829 38.3893 34.9087 38.8343 33.7886 38.8343H8.44845C7.32835 38.8343 6.25412 38.3893 5.46209 37.5973C4.67006 36.8053 4.2251 35.7311 4.2251 34.611V22.7659L21.1185 5.87246ZM35.1963 3.63972V13.4942L29.5652 7.86307V3.63972C29.5652 3.26635 29.7135 2.90827 29.9775 2.64426C30.2415 2.38025 30.5996 2.23193 30.973 2.23193H33.7886C34.1619 2.23193 34.52 2.38025 34.784 2.64426C35.048 2.90827 35.1963 3.26635 35.1963 3.63972Z" fill="#FFA31A"/>
<path fill-rule="evenodd" clip-rule="evenodd" d="M19.1279 0.82436C19.6559 0.296523 20.3719 0 21.1185 0C21.8651 0 22.5811 0.296523 23.1091 0.82436L41.8242 19.5366C42.0886 19.801 42.2371 20.1595 42.2371 20.5333C42.2371 20.9072 42.0886 21.2657 41.8242 21.53C41.5599 21.7944 41.2013 21.9429 40.8275 21.9429C40.4537 21.9429 40.0951 21.7944 39.8308 21.53L21.1185 2.81497L2.40627 21.53C2.14193 21.7944 1.7834 21.9429 1.40956 21.9429C1.03572 21.9429 0.677195 21.7944 0.412851 21.53C0.148507 21.2657 0 20.9072 0 20.5333C0 20.1595 0.148507 19.801 0.412851 19.5366L19.1279 0.82436Z" fill="#FFA31A"/>
</svg>
