<svg width="19" height="19" viewBox="0 0 19 19" fill="none" xmlns="http://www.w3.org/2000/svg">
<path d="M9.49986 1C11.2546 1 12.9374 1.69705 14.1781 2.9378C15.4189 4.17856 16.1159 5.86138 16.1159 7.61607C16.1159 10.4118 14.1515 13.4586 10.2734 16.789C10.0578 16.9742 9.78287 17.076 9.49859 17.0757C9.21432 17.0755 8.93956 16.9733 8.72425 16.7876L8.46775 16.5651C4.7614 13.3215 2.88379 10.3494 2.88379 7.61607C2.88379 5.86138 3.58084 4.17856 4.82159 2.9378C6.06235 1.69705 7.74517 1 9.49986 1ZM9.49986 5.07143C8.82498 5.07143 8.17774 5.33952 7.70053 5.81674C7.22331 6.29395 6.95522 6.94119 6.95522 7.61607C6.95522 8.29095 7.22331 8.93819 7.70053 9.41541C8.17774 9.89262 8.82498 10.1607 9.49986 10.1607C10.1747 10.1607 10.822 9.89262 11.2992 9.41541C11.7764 8.93819 12.0445 8.29095 12.0445 7.61607C12.0445 6.94119 11.7764 6.29395 11.2992 5.81674C10.822 5.33952 10.1747 5.07143 9.49986 5.07143Z" fill="#FFA31A"/>
</svg>
