<svg width="17" height="17" viewBox="0 0 17 17" fill="none" xmlns="http://www.w3.org/2000/svg">
<path d="M6.69725 6.37498C7.12565 5.85648 7.7742 5.52498 8.5001 5.52498C9.226 5.52498 9.87455 5.85648 10.3029 6.37498C10.585 6.71694 10.764 7.13205 10.8191 7.57189C10.8741 8.01173 10.803 8.45817 10.614 8.85911C10.4249 9.26006 10.1258 9.59899 9.75144 9.83637C9.37708 10.0737 8.94295 10.1998 8.49967 10.1998C8.0564 10.1998 7.62226 10.0737 7.24791 9.83637C6.87355 9.59899 6.57441 9.26006 6.38538 8.85911C6.19634 8.45817 6.12521 8.01173 6.18028 7.57189C6.23535 7.13205 6.41435 6.71694 6.6964 6.37498H6.69725ZM11.6876 7.86248C11.6876 7.32528 11.555 6.81868 11.3204 6.37498H14.8751C15.2132 6.37498 15.5375 6.50931 15.7767 6.74841C16.0158 6.98752 16.1501 7.31182 16.1501 7.64998V8.07498C16.1501 9.42393 15.125 10.8052 13.3323 11.2914C13.1481 10.9605 12.8788 10.6848 12.5523 10.4929C12.2257 10.301 11.8538 10.1999 11.4751 10.2H10.6676C10.9898 9.90188 11.2467 9.54029 11.4223 9.138C11.5978 8.7357 11.6882 8.30141 11.6876 7.86248ZM11.4751 11.05C11.6427 11.0495 11.8087 11.0822 11.9635 11.1461C12.1184 11.21 12.2592 11.3039 12.3777 11.4224C12.4961 11.5409 12.59 11.6816 12.654 11.8365C12.7179 11.9914 12.7505 12.1574 12.7501 12.325V12.75C12.7501 14.4253 11.1691 16.15 8.5001 16.15C5.8311 16.15 4.2501 14.4253 4.2501 12.75V12.325C4.24965 12.1574 4.28232 11.9914 4.34624 11.8365C4.41015 11.6816 4.50405 11.5409 4.62254 11.4224C4.74102 11.3039 4.88175 11.21 5.03665 11.1461C5.19154 11.0822 5.35754 11.0495 5.5251 11.05H11.4751ZM0.850098 8.07498C0.850098 9.42393 1.8752 10.8052 3.66785 11.2914C3.85207 10.9605 4.12139 10.6848 4.44793 10.4929C4.77446 10.301 5.14635 10.1999 5.5251 10.2H6.3326C6.01042 9.90188 5.75346 9.54029 5.57792 9.138C5.40237 8.7357 5.31203 8.30141 5.3126 7.86248C5.3126 7.32528 5.4452 6.81868 5.68065 6.37498H2.1251C1.78695 6.37498 1.46265 6.50931 1.22354 6.74841C0.984428 6.98752 0.850098 7.31182 0.850098 7.64998V8.07498ZM7.4376 3.18748C7.4376 2.56753 7.19133 1.97298 6.75296 1.53461C6.31459 1.09625 5.72004 0.849976 5.1001 0.849976C4.48015 0.849976 3.8856 1.09625 3.44724 1.53461C3.00887 1.97298 2.7626 2.56753 2.7626 3.18748C2.7626 3.80742 3.00887 4.40197 3.44724 4.84034C3.8856 5.2787 4.48015 5.52498 5.1001 5.52498C5.72004 5.52498 6.31459 5.2787 6.75296 4.84034C7.19133 4.40197 7.4376 3.80742 7.4376 3.18748ZM14.2376 3.18748C14.2376 2.56753 13.9913 1.97298 13.553 1.53461C13.1146 1.09625 12.52 0.849976 11.9001 0.849976C11.2802 0.849976 10.6856 1.09625 10.2472 1.53461C9.80887 1.97298 9.5626 2.56753 9.5626 3.18748C9.5626 3.80742 9.80887 4.40197 10.2472 4.84034C10.6856 5.2787 11.2802 5.52498 11.9001 5.52498C12.52 5.52498 13.1146 5.2787 13.553 4.84034C13.9913 4.40197 14.2376 3.80742 14.2376 3.18748Z" fill="black"/>
</svg>
