<svg width="15" height="27" viewBox="0 0 15 27" fill="none" xmlns="http://www.w3.org/2000/svg">
<path d="M8.54492 18.793H5.27539C5.28711 17.668 5.38672 16.748 5.57422 16.0332C5.77344 15.3066 6.0957 14.6445 6.54102 14.0469C6.98633 13.4492 7.57812 12.7695 8.31641 12.0078C8.85547 11.457 9.34766 10.9414 9.79297 10.4609C10.25 9.96875 10.6191 9.44141 10.9004 8.87891C11.1816 8.30469 11.3223 7.61914 11.3223 6.82227C11.3223 6.01367 11.1758 5.31641 10.8828 4.73047C10.6016 4.14453 10.1797 3.69336 9.61719 3.37695C9.06641 3.06055 8.38086 2.90234 7.56055 2.90234C6.88086 2.90234 6.23633 3.02539 5.62695 3.27148C5.01758 3.51758 4.52539 3.89844 4.15039 4.41406C3.77539 4.91797 3.58203 5.58008 3.57031 6.40039H0.318359C0.341797 5.07617 0.669922 3.93945 1.30273 2.99023C1.94727 2.04102 2.81445 1.31445 3.9043 0.810547C4.99414 0.306641 6.21289 0.0546875 7.56055 0.0546875C9.04883 0.0546875 10.3145 0.324219 11.3574 0.863281C12.4121 1.40234 13.2148 2.17578 13.7656 3.18359C14.3164 4.17969 14.5918 5.36328 14.5918 6.73438C14.5918 7.78906 14.375 8.76172 13.9414 9.65234C13.5195 10.5312 12.9746 11.3574 12.3066 12.1309C11.6387 12.9043 10.9297 13.6426 10.1797 14.3457C9.53516 14.9434 9.10156 15.6172 8.87891 16.3672C8.65625 17.1172 8.54492 17.9258 8.54492 18.793ZM5.13477 24.3652C5.13477 23.8379 5.29883 23.3926 5.62695 23.0293C5.95508 22.666 6.42969 22.4844 7.05078 22.4844C7.68359 22.4844 8.16406 22.666 8.49219 23.0293C8.82031 23.3926 8.98438 23.8379 8.98438 24.3652C8.98438 24.8691 8.82031 25.3027 8.49219 25.666C8.16406 26.0293 7.68359 26.2109 7.05078 26.2109C6.42969 26.2109 5.95508 26.0293 5.62695 25.666C5.29883 25.3027 5.13477 24.8691 5.13477 24.3652Z" fill="black" fill-opacity="0.9"/>
</svg>
