<svg width="12" height="15" viewBox="0 0 12 15" fill="none" xmlns="http://www.w3.org/2000/svg">
<path d="M1.2 0H10.8C11.1183 0 11.4235 0.112881 11.6485 0.31381C11.8736 0.51474 12 0.787259 12 1.07142V14.5406C12.0001 14.6222 11.9755 14.7023 11.9287 14.7724C11.8819 14.8424 11.8147 14.8999 11.7343 14.9386C11.6602 14.9809 11.5736 15.0022 11.4857 14.9998C11.389 14.9996 11.2941 14.9758 11.2114 14.9309L6 12.0228L0.788571 14.9309C0.709842 14.9731 0.620074 14.996 0.528292 14.9973C0.43651 14.9987 0.345949 14.9784 0.265715 14.9386C0.185292 14.8999 0.118118 14.8424 0.071332 14.7724C0.0245457 14.7023 -0.000103951 14.6222 0 14.5406V1.07142C0 0.787259 0.126429 0.51474 0.351472 0.31381C0.576515 0.112881 0.88174 0 1.2 0ZM1.02857 13.7141L5.72571 11.0892C5.80818 11.0438 5.90314 11.0198 6 11.0198C6.09686 11.0198 6.19182 11.0438 6.27428 11.0892L10.9714 13.7141V1.07142C10.9714 1.03082 10.9534 0.991891 10.9212 0.963186C10.8891 0.934482 10.8455 0.918356 10.8 0.918356H1.2C1.15453 0.918356 1.11093 0.934482 1.07878 0.963186C1.04663 0.991891 1.02857 1.03082 1.02857 1.07142V13.7141Z" fill="black"/>
</svg>
