<svg width="21" height="24" viewBox="0 0 21 24" fill="none" xmlns="http://www.w3.org/2000/svg">
<path d="M10.6117 0.588122L10.6122 0.588541L20.2988 10.2767V21.6001C20.2988 22.104 20.0986 22.5873 19.7423 22.9435C19.386 23.2998 18.9028 23.5 18.3989 23.5H2.39986C1.89598 23.5 1.41275 23.2998 1.05646 22.9435C0.700163 22.5873 0.5 22.104 0.5 21.6001V10.2767L10.1866 0.588541L10.187 0.588122C10.2149 0.560189 10.248 0.538027 10.2844 0.522906C10.3209 0.507783 10.3599 0.5 10.3994 0.5C10.4388 0.5 10.4779 0.507784 10.5143 0.522905C10.5508 0.538027 10.5839 0.560189 10.6117 0.588122Z" fill="white" stroke="#CCCCCC"/>
</svg>
