<svg width="24" height="24" viewBox="0 0 24 24" fill="none" xmlns="http://www.w3.org/2000/svg">
<path d="M8.78717 18.9234L8.63872 18.7008H8.3712H2.4C1.34982 18.7008 0.5 17.8521 0.5 16.7993V2.4015C0.5 1.34874 1.34982 0.5 2.4 0.5H21.6C22.6502 0.5 23.5 1.34874 23.5 2.4015V16.7993C23.5 17.8521 22.6502 18.7008 21.6 18.7008H15.6272H15.3596L15.2112 18.9235L12.2496 23.3663L12.2495 23.3663C12.2221 23.4075 12.185 23.4412 12.1414 23.4645C12.0979 23.4878 12.0493 23.5 12 23.5C11.9507 23.5 11.9021 23.4878 11.8586 23.4645C11.815 23.4412 11.7779 23.4075 11.7505 23.3663L11.7504 23.3662L8.78717 18.9234Z" fill="white" stroke="#CCCCCC"/>
</svg>
